Coordinates
version=1
nRows=26
nColumns=34
inDegrees=no

Units are S.I. units (second, meters, Newtons, ...)
If the header above contains a line with 'inDegrees', this indicates whether rotational values are in degrees (yes) or radians (no).

endheader
time	pelvis_tilt	pelvis_list	pelvis_rotation	pelvis_tx	pelvis_ty	pelvis_tz	hip_flexion_r	hip_adduction_r	hip_rotation_r	knee_angle_r	ankle_angle_r	subtalar_angle_r	mtp_angle_r	hip_flexion_l	hip_adduction_l	hip_rotation_l	knee_angle_l	ankle_angle_l	subtalar_angle_l	mtp_angle_l	lumbar_extension	lumbar_bending	lumbar_rotation	arm_flex_r	arm_add_r	arm_rot_r	elbow_flex_r	pro_sup_r	arm_flex_l	arm_add_l	arm_rot_l	elbow_flex_l	pro_sup_l
0	0.0612694	0.070683	0.129145	-0.159333	0.921102	-0.277014	0.482708	-0.177122	0.00534635	0.157405	0.310971	0.324084	0	-0.388955	0.017563	0.258409	0.185755	0.440916	0.321113	0	-0.160345	-0.0601202	-0.196894	-0.30112	-0.105365	-0.306375	0.557066	2.09	-0.106028	-0.216977	-0.185852	0.985132	2.09
0.01	0.055625	0.0746758	0.132737	-0.145124	0.919293	-0.275372	0.48697	-0.180113	0.00358674	0.174845	0.297506	0.330501	0	-0.385867	0.0196784	0.252811	0.208242	0.426416	0.329892	0	-0.153416	-0.0636642	-0.200005	-0.303258	-0.104806	-0.308148	0.553469	2.09	-0.111388	-0.213041	-0.191842	0.971516	2.09
0.02	0.0520472	0.0745367	0.136052	-0.12987	0.917713	-0.273523	0.48668	-0.178396	-0.00131773	0.190012	0.283149	0.338494	0	-0.385817	0.0159282	0.240901	0.229302	0.410376	0.344915	0	-0.14566	-0.0628832	-0.201926	-0.307719	-0.104702	-0.310617	0.549989	2.09	-0.118741	-0.208308	-0.197885	0.956391	2.09
0.03	0.0486644	0.0719619	0.138653	-0.114316	0.916357	-0.271471	0.48614	-0.173615	-0.00790644	0.205227	0.264833	0.348779	0	-0.383337	0.00886398	0.221093	0.253903	0.393294	0.369043	0	-0.137015	-0.0596417	-0.202613	-0.312405	-0.10496	-0.312756	0.546033	2.09	-0.126406	-0.20304	-0.204188	0.939198	2.09
0.04	0.0447683	0.067475	0.139979	-0.0986714	0.915259	-0.269198	0.486959	-0.166001	-0.0144516	0.221518	0.242646	0.360286	0	-0.376505	-0.000529921	0.194998	0.28371	0.373687	0.399525	0	-0.127255	-0.0545295	-0.201663	-0.316725	-0.105615	-0.314271	0.54155	2.09	-0.133918	-0.19721	-0.210895	0.9195	2.09
0.05	0.0402929	0.0616853	0.139362	-0.083011	0.914471	-0.266706	0.489836	-0.155764	-0.0187561	0.240072	0.21888	0.370831	0	-0.365814	-0.0103758	0.170691	0.317863	0.347745	0.423465	0	-0.116608	-0.0481358	-0.198575	-0.320531	-0.106717	-0.315079	0.536853	2.09	-0.141077	-0.190756	-0.218147	0.897183	2.09
0.06	0.0342775	0.055247	0.136773	-0.0673011	0.913794	-0.263903	0.498628	-0.144634	-0.0266236	0.266718	0.200499	0.38917	0	-0.348571	-0.0214307	0.140866	0.359218	0.317735	0.452011	0	-0.104051	-0.0415525	-0.193368	-0.324564	-0.107845	-0.315335	0.532982	2.09	-0.148543	-0.18418	-0.226126	0.873389	2.09
0.07	0.0294685	0.046083	0.13191	-0.0518758	0.913779	-0.261104	0.505756	-0.129257	-0.0301831	0.292772	0.183867	0.40056	0	-0.328341	-0.0343098	0.114532	0.405561	0.279012	0.469139	0	-0.0933266	-0.0311162	-0.185853	-0.327109	-0.110367	-0.314533	0.529546	2.09	-0.154156	-0.175944	-0.234881	0.846223	2.09
0.08	0.0258542	0.0349819	0.125806	-0.0364495	0.914136	-0.258086	0.511556	-0.110553	-0.0302079	0.320168	0.174386	0.40528	0	-0.304941	-0.0503326	0.0878286	0.457538	0.233073	0.48203	0	-0.0840153	-0.018449	-0.177074	-0.329736	-0.113186	-0.31306	0.528134	2.09	-0.159553	-0.167334	-0.244791	0.818375	2.09
0.09	0.0251488	0.0197426	0.118639	-0.0212843	0.915193	-0.255015	0.508801	-0.0847637	-0.0203264	0.338357	0.167301	0.392464	0	-0.280152	-0.0717417	0.0623614	0.514103	0.178784	0.486836	0	-0.0785205	-0.000438845	-0.167107	-0.331284	-0.117188	-0.310496	0.528453	2.09	-0.163259	-0.157441	-0.255938	0.788911	2.09
0.1	0.0199185	0.0100125	0.108084	-0.00647955	0.915768	-0.251666	0.518186	-0.0646077	-0.0118383	0.370225	0.172067	0.387573	0	-0.247112	-0.086564	0.0403932	0.575497	0.117475	0.480201	0	-0.0697052	0.0104753	-0.1541	-0.334008	-0.12017	-0.307605	0.532542	2.09	-0.168034	-0.148727	-0.268913	0.762465	2.09
0.11	0.0164	-0.0005885	0.097361	0.00802346	0.916716	-0.248342	0.52171	-0.0426711	-0.000850684	0.395725	0.180151	0.377325	0	-0.212951	-0.103157	0.0227566	0.638439	0.0511067	0.46401	0	-0.0637579	0.0227048	-0.140625	-0.336537	-0.123236	-0.30523	0.539446	2.09	-0.17188	-0.139775	-0.283251	0.736762	2.09
0.12	0.0154328	-0.0137468	0.0866372	0.0219758	0.918309	-0.24524	0.517304	-0.0179545	0.0102575	0.41165	0.18762	0.364891	0	-0.17911	-0.122712	0.00975071	0.700884	-0.0154649	0.440905	0	-0.0620592	0.0384534	-0.127069	-0.33727	-0.128173	-0.298579	0.54694	2.09	-0.17385	-0.129923	-0.298479	0.710907	2.09
0.13	0.0161805	-0.0262241	0.0773483	0.0357119	0.920181	-0.242278	0.507906	0.00564785	0.021308	0.422814	0.196949	0.351288	0	-0.146045	-0.141749	0.00310355	0.760913	-0.0747366	0.416123	0	-0.0630164	0.0533298	-0.114415	-0.338056	-0.132689	-0.292621	0.556567	2.09	-0.175611	-0.120756	-0.314191	0.687144	2.09
0.14	0.0204832	-0.0372658	0.0693878	0.0490876	0.922829	-0.239626	0.489263	0.0275163	0.0341882	0.424652	0.205089	0.336294	0	-0.118152	-0.158171	0.00272442	0.813436	-0.120269	0.394876	0	-0.0690178	0.066809	-0.102808	-0.336935	-0.137388	-0.285587	0.565578	2.09	-0.176181	-0.112192	-0.329441	0.664011	2.09
0.15	0.0173898	-0.043483	0.0623255	0.0619081	0.924354	-0.237183	0.48371	0.0412951	0.0395331	0.435479	0.219494	0.333145	0	-0.0766395	-0.167779	0.00899189	0.87156	-0.145298	0.373902	0	-0.0677526	0.0739114	-0.0918709	-0.337728	-0.140988	-0.279872	0.577922	2.09	-0.178755	-0.105497	-0.343539	0.646337	2.09
0.16	0.0182517	-0.0463934	0.0576171	0.0743887	0.926845	-0.235192	0.468902	0.0506028	0.0455916	0.437874	0.232685	0.330607	0	-0.0421715	-0.171903	0.0200097	0.918344	-0.151435	0.359947	0	-0.0715711	0.0775064	-0.0834409	-0.33556	-0.144278	-0.273532	0.587245	2.09	-0.18035	-0.10012	-0.355425	0.628864	2.09
0.17	0.0157814	-0.0486954	0.0558793	0.0865119	0.928884	-0.233566	0.458479	0.0569251	0.0472972	0.441412	0.247625	0.330619	0	-0.000309693	-0.173975	0.0359648	0.965312	-0.140179	0.346289	0	-0.0716733	0.0799935	-0.0776663	-0.334028	-0.147151	-0.268632	0.597593	2.09	-0.183208	-0.0960215	-0.3646	0.614881	2.09
0.18	0.0149645	-0.0466323	0.0567081	0.0983761	0.931485	-0.23229	0.444381	0.0572198	0.0475524	0.442082	0.262996	0.333109	0	0.0374634	-0.169859	0.0530875	1.00148	-0.117593	0.335443	0	-0.0738224	0.0773778	-0.0749502	-0.330263	-0.148856	-0.264222	0.604929	2.09	-0.186087	-0.0939562	-0.370821	0.601848	2.09
0.19	0.0123795	-0.0457394	0.060359	0.110059	0.933904	-0.231324	0.431382	0.0569864	0.0443293	0.440997	0.278364	0.336381	0	0.0788672	-0.16594	0.0718324	1.03392	-0.0891875	0.320648	0	-0.0735178	0.0758316	-0.0747919	-0.326914	-0.150269	-0.261605	0.6125	2.09	-0.18978	-0.092717	-0.374511	0.590799	2.09
0.2	0.010378	-0.0414346	0.0654769	0.121548	0.9367	-0.230552	0.41639	0.0523123	0.0400364	0.437741	0.293467	0.341581	0	0.116928	-0.157364	0.0884933	1.05577	-0.0591359	0.304094	0	-0.0739558	0.0701932	-0.076688	-0.322016	-0.150453	-0.259956	0.617751	2.09	-0.193481	-0.093017	-0.376559	0.580363	2.09
0.21	0.00721052	-0.0386828	0.0715534	0.13296	0.93937	-0.229925	0.401498	0.048601	0.0340412	0.431996	0.307574	0.347102	0	0.156246	-0.149706	0.10399	1.07235	-0.0293424	0.282475	0	-0.0726322	0.0661312	-0.079384	-0.317773	-0.150453	-0.260088	0.623651	2.09	-0.19774	-0.0934491	-0.377948	0.571492	2.09
0.22	0.00447215	-0.0335602	0.0777057	0.144227	0.942304	-0.229398	0.384959	0.0417146	0.0258834	0.424116	0.321305	0.357296	0	0.192017	-0.138738	0.116308	1.07931	0.000583979	0.259181	0	-0.071987	0.0592927	-0.0827684	-0.312551	-0.149532	-0.261496	0.628413	2.09	-0.20206	-0.0942681	-0.380596	0.563867	2.09
0.23	0.00162342	-0.0305089	0.0828752	0.155499	0.945148	-0.228845	0.366908	0.0384216	0.0221448	0.41265	0.331736	0.360456	0	0.226821	-0.130041	0.126005	1.08067	0.0321108	0.235696	0	-0.0708607	0.0547551	-0.0847478	-0.308322	-0.148905	-0.26342	0.634406	2.09	-0.206794	-0.0950671	-0.381678	0.557724	2.09
0.24	-0.000627289	-0.0257746	0.0869536	0.16666	0.948137	-0.228306	0.347318	0.033562	0.0187717	0.399287	0.34092	0.36511	0	0.257671	-0.119349	0.132344	1.07324	0.0659562	0.214606	0	-0.070734	0.0483559	-0.0861025	-0.303543	-0.147799	-0.266045	0.640133	2.09	-0.211696	-0.0958021	-0.384469	0.553393	2.09
0.25	-0.0027162	-0.0224833	0.0893838	0.177843	0.950949	-0.227729	0.327008	0.0308524	0.016652	0.384263	0.348554	0.368832	0	0.286822	-0.110619	0.136133	1.06028	0.101506	0.19661	0	-0.0705932	0.0436707	-0.0857047	-0.299613	-0.147168	-0.268902	0.647307	2.09	-0.217185	-0.0959837	-0.387941	0.55122	2.09
